# xmcd
# 
# Track frame offsets:
#     150
#     10502
#     26252
#     40202
#     54302
#     69452
#     83627
#     98552
#     110477
#     122327
#     134627
# 
# Disc length: 1963
# 
# Revision: 0
# Processed by: cddbd v1.5.2PL0 Copyright (c) Steve Scherf et al.
# Submitted via: fre:ac v1.0.17
# 
DISCID=7c07a90b
DTITLE=Boxcar Willie - Best Love Favorites, Vol. 2
DYEAR=0
DGENRE=Country
TTITLE0=This Ol' House
TTITLE1=Goodnight Irene
TTITLE2=Good Hearted Woman
TTITLE3=Cold, Cold Heart
TTITLE4=Mom and Dad's Waltz
TTITLE5=L.A. Lady
TTITLE6=I'm Thinking Tonight of My Blue Eyes
TTITLE7=Lovesick Blues
TTITLE8=Fraulein
TTITLE9=Don't Pretend
TTITLE10=I'll Fly Away
EXTD=
EXTT0=
EXTT1=
EXTT2=
EXTT3=
EXTT4=
EXTT5=
EXTT6=
EXTT7=
EXTT8=
EXTT9=
EXTT10=
PLAYORDER=
